#!OML:ASF H:\Terrain\Patient Classification 1\Walking\liu\liu.ASF
:FULLY-SPECIFIED
:DEGREES
227
root 8.689750 16.200500 -5.266350 10.385900 -4.120000 -8.027290
lowerback -4.715910 1.535060 2.328730
upperback -0.756430 1.724685 1.943905
thorax 1.870760 0.874095 0.932885
lowerneck -8.125200 -3.004465 -6.971400
upperneck 7.774800 -3.873780 7.465650
head 4.343160 -1.553210 3.226760
rclavicle 0.000000 0.000000
rhumerus -20.497351 6.856400 -43.459000
rradius 25.727150
rwrist -12.557650
rhand -15.920350 -15.048650
rfingers 3.562510
rthumb -2.547480 -30.008051
lclavicle 0.000000 0.000000
lhumerus -25.987801 -4.096505 47.216499
lradius 11.970850
lwrist 2.007075
lhand -3.310980 -11.838700
lfingers 3.562510
lthumb 9.617200 2.695700
rfemur 8.747950 3.691845 15.762400
rtibia 0.000000
rfoot -5.318250 3.870790
rtoes -6.222800
lfemur -24.046850 2.757240 -6.212500
ltibia 14.209800
lfoot -3.246820 6.360350
ltoes -7.107200
228
root 8.711260 16.180401 -5.090830 10.541300 -4.256970 -7.881680
lowerback -4.737005 1.519270 2.211740
upperback -0.765155 1.717095 1.881845
thorax 1.870310 0.869195 0.932975
lowerneck -8.286600 -2.993855 -6.887550
upperneck 7.776200 -3.861620 7.472650
head 4.368005 -1.535290 3.215355
rclavicle 0.000000 0.000000
rhumerus -20.532249 6.735600 -43.585449
rradius 25.531500
rwrist -12.414400
rhand -16.081051 -15.423400
rfingers 3.562510
rthumb -2.702605 -30.378901
lclavicle 0.000000 0.000000
lhumerus -25.840000 -3.878340 46.826248
lradius 11.860350
lwrist 1.455320
lhand -3.893445 -11.948650
lfingers 3.562510
lthumb 9.056950 2.639615
rfemur 9.005950 3.671680 15.618600
rtibia -0.000000
rfoot -5.195350 3.887720
rtoes -6.924650
lfemur -24.372250 3.330930 -6.680250
ltibia 14.837400
lfoot -1.948900 5.913450
ltoes -6.466450
229
root 8.733130 16.136499 -4.934440 10.597700 -4.272230 -7.664410
lowerback -4.574305 1.457985 2.023925
upperback -0.842320 1.672290 1.839120
thorax 1.691230 0.843795 0.974125
lowerneck -8.215000 -2.960520 -6.881850
upperneck 7.730550 -3.832420 7.530550
head 4.337515 -1.519225 3.238905
rclavicle 0.000000 -0.000000
rhumerus -20.670099 6.644450 -43.710499
rradius 25.409250
rwrist -12.331600
rhand -16.037600 -15.997700
rfingers 3.562510
rthumb -2.660655 -30.954300
lclavicle 0.000000 -0.000000
lhumerus -25.855949 -3.776645 46.627602
lradius 11.754200
lwrist 1.167870
lhand -4.419935 -12.060700
lfingers 3.562510
lthumb 8.550300 2.573005
rfemur 9.286000 3.576970 15.456600
rtibia -0.000000
rfoot -4.759940 3.899820
rtoes -6.755550
lfemur -24.702749 3.714425 -7.073350
ltibia 15.552750
lfoot -1.031070 5.565150
ltoes -6.929650
230
root 8.757810 16.123199 -4.767910 10.706700 -4.254930 -7.408520
lowerback -4.503805 1.423040 1.844575
upperback -0.922085 1.653835 1.794045
thorax 1.561735 0.832300 1.017420
lowerneck -8.227700 -2.970545 -6.882150
upperneck 7.792050 -3.851315 7.527650
head 4.363330 -1.527475 3.236980
rclavicle -0.000000 -0.000000
rhumerus -20.996050 6.537000 -43.765701
rradius 25.500799
rwrist -12.369400
rhand -15.793150 -16.179050
rfingers 3.562510
rthumb -2.424650 -31.141300
lclavicle -0.000000 -0.000000
lhumerus -25.909100 -3.875790 46.642151
lradius 11.653850
lwrist 1.166590
lhand -4.261405 -11.756150
lfingers 3.562510
lthumb 8.702850 2.864195
rfemur 9.497100 3.474235 15.239200
rtibia 0.000000
rfoot -4.322600 3.880925
rtoes -5.614200
lfemur -24.916550 3.836720 -7.321800
ltibia 16.246550
lfoot -0.401455 5.435100
ltoes -6.596500
231
root 8.783990 16.115200 -4.579960 10.738400 -4.247920 -7.297120
lowerback -4.579535 1.379805 1.780755
upperback -0.878690 1.597085 1.748285
thorax 1.648455 0.804195 1.004515
lowerneck -8.407950 -2.974195 -6.797750
upperneck 7.840200 -3.856405 7.503850
head 4.408645 -1.519280 3.213090
rclavicle 0.000000 0.000000
rhumerus -21.118299 6.406100 -43.852348
rradius 25.438400
rwrist -12.298950
rhand -15.664350 -16.848200
rfingers 3.562510
rthumb -2.300275 -31.813200
lclavicle 0.000000 0.000000
lhumerus -25.730350 -3.805345 46.486450
lradius 11.453050
lwrist 1.067495
lhand -5.217950 -12.613700
lfingers 3.562510
lthumb 7.781900 2.083190
rfemur 9.789600 3.384080 15.088700
rtibia -0.000000
rfoot -4.008350 3.856345
rtoes -5.587150
lfemur -25.007099 3.997050 -7.516550
ltibia 16.894199
lfoot 0.088856 5.095950
ltoes -6.310900
232
root 8.812750 16.101601 -4.391820 10.783500 -4.202000 -6.991240
lowerback -4.689920 1.301635 1.644930
upperback -0.850435 1.501435 1.668245
thorax 1.737165 0.756020 0.992245
lowerneck -8.584050 -2.970950 -6.773200
upperneck 7.906950 -3.850705 7.533400
head 4.462825 -1.504805 3.221415
rclavicle -0.000000 0.000000
rhumerus -21.221251 6.307500 -43.966648
rradius 25.252251
rwrist -12.167100
rhand -15.437050 -17.482700
rfingers 3.562510
rthumb -2.080800 -32.452251
lclavicle -0.000000 0.000000
lhumerus -25.530350 -3.624535 46.213348
lradius 11.202750
lwrist 0.768085
lhand -4.021145 -12.182500
lfingers 3.562510
lthumb 8.934050 2.417085
rfemur 10.075450 3.261510 14.839900
rtibia -0.000000
rfoot -3.539475 3.811615
rtoes -5.737250
lfemur -25.180901 4.213065 -7.890650
ltibia 17.601900
lfoot 0.421759 4.551105
ltoes -5.490400
233
root 8.841380 16.089399 -4.220670 10.922200 -4.004600 -6.641330
lowerback -4.650715 1.244130 1.502245
upperback -0.981425 1.450100 1.590595
thorax 1.576565 0.728650 0.978145
lowerneck -8.512700 -2.991250 -6.831900
upperneck 7.923600 -3.871430 7.518200
head 4.460360 -1.522460 3.223905
rclavicle -0.000000 0.000000
rhumerus -21.677851 6.188750 -44.029301
rradius 25.251450
rwrist -12.184250
rhand -15.077550 -17.708349
rfingers 3.562510
rthumb -1.733635 -32.684101
lclavicle -0.000000 0.000000
lhumerus -25.582100 -3.661625 46.084148
lradius 11.108600
lwrist 0.577950
lhand -3.267720 -12.043400
lfingers 3.562510
lthumb 9.658800 2.486875
rfemur 10.255200 3.068410 14.579400
rtibia 0.000000
rfoot -2.963680 3.703470
rtoes -6.898900
lfemur -25.407900 4.213515 -8.203500
ltibia 18.237049
lfoot 0.604240 4.151485
ltoes -4.309070
234
root 8.896900 16.086500 -3.972280 10.795700 -4.247930 -6.255990
lowerback -4.892475 1.258745 1.469455
upperback -0.970345 1.461700 1.515555
thorax 1.724200 0.734450 0.932580
lowerneck -8.385350 -2.997910 -6.894200
upperneck 7.853000 -3.867855 7.495700
head 4.414160 -1.532470 3.225600
rclavicle 0.000000 0.000000
rhumerus -22.008850 5.941150 -43.980652
rradius 25.063101
rwrist -12.019300
rhand -14.699350 -17.901649
rfingers 3.562510
rthumb -1.368360 -32.882751
lclavicle 0.000000 0.000000
lhumerus -25.625000 -3.509970 45.921600
lradius 11.027650
lwrist 0.233652
lhand -3.370625 -12.095200
lfingers 3.562510
lthumb 9.559850 2.444930
rfemur 10.734200 3.086295 14.188800
rtibia -0.000000
rfoot -2.604900 3.676285
rtoes -7.838300
lfemur -25.242149 4.310585 -8.583350
ltibia 18.908251
lfoot 0.170881 3.842605
ltoes -3.760170
235
root 8.913210 16.090401 -3.828290 10.766300 -4.054230 -6.341840
lowerback -4.572090 1.176125 1.360150
upperback -1.094585 1.382310 1.588605
thorax 1.409610 0.693400 1.039775
lowerneck -8.430900 -2.974490 -6.981750
upperneck 7.900850 -3.839140 7.623750
head 4.443685 -1.510455 3.293285
rclavicle 0.000000 0.000000
rhumerus -22.202551 5.724400 -43.949100
rradius 24.730801
rwrist -11.774800
rhand -14.471150 -16.088900
rfingers 3.562510
rthumb -1.147975 -31.072599
lclavicle 0.000000 0.000000
lhumerus -25.544901 -3.254980 45.741348
lradius 10.797200
lwrist -0.246804
lhand -3.553415 -12.110900
lfingers 3.562510
lthumb 9.384050 2.446380
rfemur 10.914750 2.907800 14.208700
rtibia -0.000000
rfoot -1.994415 3.493515
rtoes -8.597400
lfemur -25.356550 4.396935 -8.643900
ltibia 19.508150
lfoot -0.055126 3.560945
ltoes -3.346685
